<svg xmlns="http://www.w3.org/2000/svg" width="603" height="164" viewBox="60.5 0 603 164" xmlns:v="https://vecta.io/nano"><linearGradient id="A" x1="69.835" x2="221.524" y1="80.391" y2="80.391" gradientUnits="userSpaceOnUse"><stop offset="0" stop-color="#fff200"/><stop offset="1" stop-color="#f42534"/></linearGradient><path fill="url(#A)" d="M195.987 130.473l-.001-56.721h4.818L163.65 40.817l-11.796 10.456 35.034 30.342h-18.98v48.77h-44.455v-48.77H105.78l34.146-30.272-12.186-10.554-37.184 32.963h4.816v56.721h-7.863V81.615H69.835l57.843-51.279 18.18 15.746 17.791-15.773 57.875 51.307h-17.676l.001 48.856h-7.862zm-64.674-7.952h28.73v-48.77h5.755l-19.88-17.217-19.419 17.217h4.815l-.001 48.77h0z"/><path d="M269.08 105.5h20.246v1.623c0 3.682-.437 6.936-1.303 9.77-.847 2.623-2.273 5.076-4.284 7.366-4.545 5.114-10.332 7.671-17.357 7.671-6.851 0-12.724-2.469-17.611-7.421-4.887-4.97-7.328-10.938-7.328-17.891 0-7.115 2.484-13.147 7.455-18.097 4.976-4.969 11.023-7.457 18.152-7.457 3.832 0 7.402.784 10.725 2.339 3.175 1.556 6.291 4.091 9.362 7.594l-5.269 5.048c-4.018-5.353-8.917-8.035-14.691-8.035-5.181 0-9.529 1.796-13.042 5.364-3.512 3.514-5.269 7.916-5.269 13.2 0 5.46 1.96 9.961 5.873 13.491 3.656 3.277 7.622 4.916 11.898 4.916 3.64 0 6.907-1.226 9.808-3.674 2.896-2.466 4.513-5.418 4.855-8.857h-12.22v-6.95zm49.934-23.479v48.995h-7.396V82.021h7.396zm38.289 6.952v42.043h-7.395V88.973h-11.266v-6.952h29.892v6.952h-11.231zm77.399 0v42.043h-7.392V88.973h-11.269v-6.952h29.893v6.952h-11.232zm26.83 17.316c0-6.889 2.526-12.818 7.586-17.768 5.039-4.953 11.083-7.421 18.151-7.421 6.981 0 12.967 2.493 17.962 7.493 5.016 4.983 7.521 10.986 7.521 17.981 0 7.051-2.519 13.025-7.557 17.934-5.052 4.928-11.159 7.393-18.309 7.393-6.324 0-12.005-2.186-17.035-6.569-5.545-4.844-8.319-11.189-8.319-19.043zm7.459.084c0 5.409 1.815 9.863 5.461 13.348 3.615 3.487 7.796 5.231 12.537 5.231 5.134 0 9.473-1.774 13.005-5.326 3.533-3.596 5.301-7.971 5.301-13.125 0-5.226-1.748-9.597-5.232-13.126-3.475-3.551-7.77-5.329-12.892-5.329-5.094 0-9.401 1.778-12.91 5.329-3.509 3.51-5.27 7.838-5.27 12.998zm66.376-24.352l12.751 32.747 13.329-35.132 12.759 35.132 13.546-32.747h8.03l-21.897 52.103-12.596-34.714-13.138 34.749-20.814-52.138h8.03zm79.507 48.995V78.688l35.729 37.378V82.021H658v51.976l-35.734-37.281v34.3h-7.392 0z" fill="#fff"/></svg>