<svg xmlns="http://www.w3.org/2000/svg" xmlns:xlink="http://www.w3.org/1999/xlink" id="Layer_1" width="492" height="270" x="0" y="0" enable-background="new 62.5 202.5 492 270" version="1.1" viewBox="62.5 202.5 492 270" xml:space="preserve"><g id="lines"><line x1="91" x2="196" y1="428.332" y2="428.332" fill="none" stroke="#A8A8A8" stroke-linecap="round" stroke-linejoin="round" stroke-miterlimit="10" stroke-width="2"/><line x1="171" x2="206.333" y1="438.999" y2="438.999" fill="none" stroke="#A8A8A8" stroke-linecap="round" stroke-linejoin="round" stroke-miterlimit="10" stroke-width="2"/><line x1="246.098" x2="314.333" y1="454.999" y2="454.999" fill="none" stroke="#A8A8A8" stroke-linecap="round" stroke-linejoin="round" stroke-miterlimit="10" stroke-width="2"/><line x1="278.063" x2="330.014" y1="435.666" y2="435.666" fill="none" stroke="#A8A8A8" stroke-linecap="round" stroke-linejoin="round" stroke-miterlimit="10" stroke-width="2"/><line x1="306" x2="361.834" y1="441.999" y2="441.999" fill="none" stroke="#A8A8A8" stroke-linecap="round" stroke-linejoin="round" stroke-miterlimit="10" stroke-width="2"/><line x1="399" x2="477.059" y1="436.999" y2="436.999" fill="none" stroke="#A8A8A8" stroke-linecap="round" stroke-linejoin="round" stroke-miterlimit="10" stroke-width="2"/><line x1="356.999" x2="395.999" y1="454.999" y2="454.999" fill="none" stroke="#A8A8A8" stroke-linecap="round" stroke-linejoin="round" stroke-miterlimit="10" stroke-width="2"/><line x1="352.334" x2="443.667" y1="428.332" y2="428.332" fill="none" stroke="#A8A8A8" stroke-linecap="round" stroke-linejoin="round" stroke-miterlimit="10" stroke-width="2"/><line x1="250.598" x2="390.476" y1="423.999" y2="423.999" fill="none" stroke="#A8A8A8" stroke-linecap="round" stroke-linejoin="round" stroke-miterlimit="10" stroke-width="2"/><line x1="196" x2="304.038" y1="432.999" y2="432.999" fill="none" stroke="#A8A8A8" stroke-linecap="round" stroke-linejoin="round" stroke-miterlimit="10" stroke-width="2"/><line x1="204.015" x2="132.932" y1="424.999" y2="424.999" fill="none" stroke="#A8A8A8" stroke-linecap="round" stroke-linejoin="round" stroke-miterlimit="10" stroke-width="2"/><line x1="236.333" x2="208.375" y1="428.332" y2="428.332" fill="none" stroke="#A8A8A8" stroke-linecap="round" stroke-linejoin="round" stroke-miterlimit="10" stroke-width="2"/><line x1="446.334" x2="513.667" y1="432.999" y2="432.999" fill="none" stroke="#A8A8A8" stroke-linecap="round" stroke-linejoin="round" stroke-miterlimit="10" stroke-width="2"/><line x1="415" x2="446.334" y1="421.666" y2="421.666" fill="none" stroke="#A8A8A8" stroke-linecap="round" stroke-linejoin="round" stroke-miterlimit="10" stroke-width="2"/><line x1="450.333" x2="487.667" y1="424.999" y2="424.999" fill="none" stroke="#A8A8A8" stroke-linecap="round" stroke-linejoin="round" stroke-miterlimit="10" stroke-width="2"/><line x1="349.472" x2="380.999" y1="435.666" y2="435.666" fill="none" stroke="#A8A8A8" stroke-linecap="round" stroke-linejoin="round" stroke-miterlimit="10" stroke-width="2"/><line x1="233.333" x2="261.697" y1="442.999" y2="442.999" fill="none" stroke="#A8A8A8" stroke-linecap="round" stroke-linejoin="round" stroke-miterlimit="10" stroke-width="2"/><line x1="138" x2="147.667" y1="442.999" y2="442.999" fill="none" stroke="#A8A8A8" stroke-linecap="round" stroke-linejoin="round" stroke-miterlimit="10" stroke-width="2"/><line x1="171" x2="181.333" y1="454.999" y2="454.999" fill="none" stroke="#A8A8A8" stroke-linecap="round" stroke-linejoin="round" stroke-miterlimit="10" stroke-width="2"/></g><g id="town"><line x1="77.663" x2="539.667" y1="416.561" y2="416.561" fill="none" stroke="#A8A8A8" stroke-linecap="round" stroke-linejoin="round" stroke-miterlimit="10" stroke-width="2"/><rect width="72.667" height="106.895" x="102.333" y="309.666" fill="none" stroke="#A8A8A8" stroke-linecap="round" stroke-linejoin="round" stroke-miterlimit="10" stroke-width="2"/><rect width="58.333" height="73.561" x="175" y="343" fill="none" stroke="#A8A8A8" stroke-linecap="round" stroke-linejoin="round" stroke-miterlimit="10" stroke-width="2"/><rect width="110.335" height="40.728" x="304.665" y="375.833" fill="none" stroke="#A8A8A8" stroke-linecap="round" stroke-linejoin="round" stroke-miterlimit="10" stroke-width="2"/><rect width="10.5" height="18.561" x="392.5" y="398" fill="none" stroke="#A8A8A8" stroke-linecap="round" stroke-linejoin="round" stroke-miterlimit="10" stroke-width="2"/><g><rect width="10.5" height="10.5" x="113" y="338.5" fill="none" stroke="#A8A8A8" stroke-linecap="round" stroke-linejoin="round" stroke-miterlimit="10" stroke-width="2"/><rect width="10.5" height="10.5" x="132.75" y="338.5" fill="none" stroke="#A8A8A8" stroke-linecap="round" stroke-linejoin="round" stroke-miterlimit="10" stroke-width="2"/><rect width="10.5" height="10.5" x="152.5" y="338.5" fill="none" stroke="#A8A8A8" stroke-linecap="round" stroke-linejoin="round" stroke-miterlimit="10" stroke-width="2"/></g><g><rect width="10.5" height="10.5" x="113" y="357.167" fill="none" stroke="#A8A8A8" stroke-linecap="round" stroke-linejoin="round" stroke-miterlimit="10" stroke-width="2"/><rect width="10.5" height="10.5" x="132.75" y="357.167" fill="none" stroke="#A8A8A8" stroke-linecap="round" stroke-linejoin="round" stroke-miterlimit="10" stroke-width="2"/><rect width="10.5" height="10.5" x="152.5" y="357.167" fill="none" stroke="#A8A8A8" stroke-linecap="round" stroke-linejoin="round" stroke-miterlimit="10" stroke-width="2"/></g><g><rect width="10.5" height="10.5" x="113" y="375.833" fill="none" stroke="#A8A8A8" stroke-linecap="round" stroke-linejoin="round" stroke-miterlimit="10" stroke-width="2"/><rect width="10.5" height="10.5" x="132.75" y="375.833" fill="none" stroke="#A8A8A8" stroke-linecap="round" stroke-linejoin="round" stroke-miterlimit="10" stroke-width="2"/><rect width="10.5" height="10.5" x="152.5" y="375.833" fill="none" stroke="#A8A8A8" stroke-linecap="round" stroke-linejoin="round" stroke-miterlimit="10" stroke-width="2"/></g><rect width="10.5" height="18.561" x="152.5" y="398" fill="none" stroke="#A8A8A8" stroke-linecap="round" stroke-linejoin="round" stroke-miterlimit="10" stroke-width="2"/><rect width="30.25" height="12.666" x="113" y="398" fill="none" stroke="#A8A8A8" stroke-linecap="round" stroke-linejoin="round" stroke-miterlimit="10" stroke-width="2"/><g><rect width="10.5" height="10.5" x="113" y="319.833" fill="none" stroke="#A8A8A8" stroke-linecap="round" stroke-linejoin="round" stroke-miterlimit="10" stroke-width="2"/><rect width="10.5" height="10.5" x="132.75" y="319.833" fill="none" stroke="#A8A8A8" stroke-linecap="round" stroke-linejoin="round" stroke-miterlimit="10" stroke-width="2"/><rect width="10.5" height="10.5" x="152.5" y="319.833" fill="none" stroke="#A8A8A8" stroke-linecap="round" stroke-linejoin="round" stroke-miterlimit="10" stroke-width="2"/></g><line x1="123.5" x2="129.224" y1="407.28" y2="401.557" fill="none" stroke="#A8A8A8" stroke-linecap="round" stroke-linejoin="round" stroke-miterlimit="10" stroke-width="2"/><line x1="129.334" x2="132.932" y1="406.418" y2="402.82" fill="none" stroke="#A8A8A8" stroke-linecap="round" stroke-linejoin="round" stroke-miterlimit="10" stroke-width="2"/><line x1="160.334" x2="160.334" y1="407.281" y2="410.666" fill="none" stroke="#A8A8A8" stroke-linecap="round" stroke-linejoin="round" stroke-miterlimit="10" stroke-width="2"/><path fill="none" stroke="#A8A8A8" stroke-linecap="round" stroke-linejoin="round" stroke-miterlimit="10" stroke-width="2" d="M405.024,398.039h-14.55c0-4.017,3.258-7.274,7.274-7.274S405.024,394.022,405.024,398.039z"/><rect width="26.334" height="30.228" x="314.333" y="386.333" fill="none" stroke="#A8A8A8" stroke-linecap="round" stroke-linejoin="round" stroke-miterlimit="10" stroke-width="2"/><rect width="26.334" height="30.228" x="348.666" y="386.333" fill="none" stroke="#A8A8A8" stroke-linecap="round" stroke-linejoin="round" stroke-miterlimit="10" stroke-width="2"/><g><line x1="324.29" x2="330.014" y1="398.862" y2="393.139" fill="none" stroke="#A8A8A8" stroke-linecap="round" stroke-linejoin="round" stroke-miterlimit="10" stroke-width="2"/><line x1="330.124" x2="333.722" y1="398" y2="394.402" fill="none" stroke="#A8A8A8" stroke-linecap="round" stroke-linejoin="round" stroke-miterlimit="10" stroke-width="2"/></g><g><line x1="359.832" x2="365.556" y1="398.487" y2="392.764" fill="none" stroke="#A8A8A8" stroke-linecap="round" stroke-linejoin="round" stroke-miterlimit="10" stroke-width="2"/><line x1="365.666" x2="369.264" y1="397.625" y2="394.027" fill="none" stroke="#A8A8A8" stroke-linecap="round" stroke-linejoin="round" stroke-miterlimit="10" stroke-width="2"/></g><rect width="48" height="13.168" x="356.999" y="357.167" fill="none" stroke="#A8A8A8" stroke-linecap="round" stroke-linejoin="round" stroke-miterlimit="10" stroke-width="2"/><line x1="367.465" x2="367.465" y1="370.334" y2="375.833" fill="none" stroke="#A8A8A8" stroke-linecap="round" stroke-linejoin="round" stroke-miterlimit="10" stroke-width="2"/><line x1="395.999" x2="395.999" y1="370.334" y2="375.833" fill="none" stroke="#A8A8A8" stroke-linecap="round" stroke-linejoin="round" stroke-miterlimit="10" stroke-width="2"/><circle cx="400.235" cy="408.516" r="1.235" fill="#A8A8A8"/><g><circle cx="268.021" cy="390.875" r="10.042" fill="none" stroke="#A8A8A8" stroke-linecap="round" stroke-linejoin="round" stroke-miterlimit="10" stroke-width="2"/><line x1="268.021" x2="268.021" y1="400.916" y2="416.561" fill="none" stroke="#A8A8A8" stroke-linecap="round" stroke-linejoin="round" stroke-miterlimit="10" stroke-width="2"/></g><g><circle cx="249.467" cy="399.43" r="7.487" fill="none" stroke="#A8A8A8" stroke-linecap="round" stroke-linejoin="round" stroke-miterlimit="10" stroke-width="2"/><line x1="250.021" x2="250.021" y1="407.25" y2="416.561" fill="none" stroke="#A8A8A8" stroke-linecap="round" stroke-linejoin="round" stroke-miterlimit="10" stroke-width="2"/></g><path fill="none" stroke="#A8A8A8" stroke-linecap="round" stroke-linejoin="round" stroke-miterlimit="10" stroke-width="2" d="M183.459,249.334c-4.284,0-8.062,2.157-10.313,5.442c-4.311,0.228-7.874,3.234-8.938,7.268c-0.506-0.133-1.035-0.21-1.583-0.21 c-3.452,0-6.25,2.798-6.25,6.25s2.798,6.25,6.25,6.25c1.929,0,18.976,0,20.834,0c6.903,0,12.5-5.597,12.5-12.5 S190.362,249.334,183.459,249.334z" enable-background="new" opacity=".3"/><path fill="none" stroke="#A8A8A8" stroke-linecap="round" stroke-linejoin="round" stroke-miterlimit="10" stroke-width="2" d="M374.806,295.521c-3.256,0-6.127,1.64-7.839,4.136c-3.274,0.173-5.983,2.458-6.791,5.524c-0.385-0.101-0.787-0.16-1.204-0.16 c-2.623,0-4.75,2.127-4.75,4.75s2.127,4.75,4.75,4.75c1.467,0,14.422,0,15.834,0c5.246,0,9.5-4.253,9.5-9.5 S380.052,295.521,374.806,295.521z" enable-background="new" opacity=".3"/><path fill="none" stroke="#A8A8A8" stroke-linecap="round" stroke-linejoin="round" stroke-miterlimit="10" stroke-width="2" d="M306.955,317.704c-2.529,0-4.76,1.273-6.09,3.213c-2.544,0.134-4.648,1.909-5.274,4.29c-0.299-0.078-0.611-0.124-0.935-0.124 c-2.037,0-3.689,1.652-3.689,3.689s1.652,3.689,3.689,3.689c1.138,0,11.201,0,12.299,0c4.074,0,7.378-3.304,7.378-7.379 S311.029,317.704,306.955,317.704z" enable-background="new" opacity=".3"/><rect width="65.001" height="91.478" x="450.333" y="325.083" fill="none" stroke="#A8A8A8" stroke-linecap="round" stroke-linejoin="round" stroke-miterlimit="10" stroke-width="2"/><line x1="185" x2="185" y1="343" y2="325.083" fill="none" stroke="#A8A8A8" stroke-linecap="round" stroke-linejoin="round" stroke-miterlimit="10" stroke-width="2"/><line x1="191" x2="191" y1="343" y2="334.042" fill="none" stroke="#A8A8A8" stroke-linecap="round" stroke-linejoin="round" stroke-miterlimit="10" stroke-width="2"/><rect width="20.167" height="13.084" x="181.333" y="350.667" fill="none" stroke="#A8A8A8" stroke-linecap="round" stroke-linejoin="round" stroke-miterlimit="10" stroke-width="2"/><rect width="20.167" height="13.084" x="206.333" y="350.667" fill="none" stroke="#A8A8A8" stroke-linecap="round" stroke-linejoin="round" stroke-miterlimit="10" stroke-width="2"/><rect width="20.167" height="13.084" x="181.333" y="368.667" fill="none" stroke="#A8A8A8" stroke-linecap="round" stroke-linejoin="round" stroke-miterlimit="10" stroke-width="2"/><rect width="20.167" height="13.084" x="206.333" y="368.667" fill="none" stroke="#A8A8A8" stroke-linecap="round" stroke-linejoin="round" stroke-miterlimit="10" stroke-width="2"/><rect width="10.5" height="18.562" x="181.75" y="398.001" fill="none" stroke="#A8A8A8" stroke-linecap="round" stroke-linejoin="round" stroke-miterlimit="10" stroke-width="2"/><g><rect width="18.167" height="16.584" x="207.333" y="399.127" fill="none" stroke="#A8A8A8" stroke-linecap="round" stroke-linejoin="round" stroke-miterlimit="10" stroke-width="2"/><line x1="207.333" x2="225.5" y1="403.904" y2="403.904" fill="none" stroke="#A8A8A8" stroke-linecap="round" stroke-linejoin="round" stroke-miterlimit="10" stroke-width="2"/><line x1="207.333" x2="225.5" y1="406.252" y2="406.252" fill="none" stroke="#A8A8A8" stroke-linecap="round" stroke-linejoin="round" stroke-miterlimit="10" stroke-width="2"/><line x1="207.333" x2="225.5" y1="401.557" y2="401.557" fill="none" stroke="#A8A8A8" stroke-linecap="round" stroke-linejoin="round" stroke-miterlimit="10" stroke-width="2"/><line x1="207.333" x2="225.5" y1="408.599" y2="408.599" fill="none" stroke="#A8A8A8" stroke-linecap="round" stroke-linejoin="round" stroke-miterlimit="10" stroke-width="2"/><line x1="208.375" x2="225.417" y1="410.946" y2="410.946" fill="none" stroke="#A8A8A8" stroke-linecap="round" stroke-linejoin="round" stroke-miterlimit="10" stroke-width="2"/><line x1="207.333" x2="225.5" y1="413.294" y2="413.294" fill="none" stroke="#A8A8A8" stroke-linecap="round" stroke-linejoin="round" stroke-miterlimit="10" stroke-width="2"/></g><rect width="21.417" height="3.752" x="205.708" y="395.375" fill="none" stroke="#A8A8A8" stroke-linecap="round" stroke-linejoin="round" stroke-miterlimit="10" stroke-width="2"/><circle cx="273.682" cy="391.944" r="1.235" fill="#A8A8A8"/><circle cx="262.932" cy="394.413" r="1.235" fill="#A8A8A8"/><circle cx="269.167" cy="397.251" r="1.235" fill="#A8A8A8"/><circle cx="251.833" cy="402.834" r="1.235" fill="#A8A8A8"/><circle cx="267.932" cy="391.584" r="1.235" fill="#A8A8A8"/><circle cx="247.333" cy="401.933" r="1.235" fill="#A8A8A8"/><circle cx="188.667" cy="408.516" r="1.235" fill="#A8A8A8"/><g><rect width="10.333" height="13.42" x="419.217" y="398.485" fill="none" stroke="#A8A8A8" stroke-linecap="round" stroke-linejoin="round" stroke-miterlimit="10" stroke-width="2"/><rect width="4.803" height="4.654" x="421.981" y="411.905" fill="none" stroke="#A8A8A8" stroke-linecap="round" stroke-linejoin="round" stroke-miterlimit="10" stroke-width="2"/></g><g><rect width="10.5" height="10.5" x="457.584" y="333.25" fill="none" stroke="#A8A8A8" stroke-linecap="round" stroke-linejoin="round" stroke-miterlimit="10" stroke-width="2"/><rect width="10.5" height="10.5" x="477.334" y="333.25" fill="none" stroke="#A8A8A8" stroke-linecap="round" stroke-linejoin="round" stroke-miterlimit="10" stroke-width="2"/><rect width="10.5" height="10.5" x="497.084" y="333.25" fill="none" stroke="#A8A8A8" stroke-linecap="round" stroke-linejoin="round" stroke-miterlimit="10" stroke-width="2"/></g><rect width="19.75" height="20.062" x="487.834" y="305.021" fill="none" stroke="#A8A8A8" stroke-linecap="round" stroke-linejoin="round" stroke-miterlimit="10" stroke-width="2"/><g><rect width="10.5" height="10.5" x="457.584" y="351.25" fill="none" stroke="#A8A8A8" stroke-linecap="round" stroke-linejoin="round" stroke-miterlimit="10" stroke-width="2"/><rect width="10.5" height="10.5" x="477.334" y="351.25" fill="none" stroke="#A8A8A8" stroke-linecap="round" stroke-linejoin="round" stroke-miterlimit="10" stroke-width="2"/><rect width="10.5" height="10.5" x="497.084" y="351.25" fill="none" stroke="#A8A8A8" stroke-linecap="round" stroke-linejoin="round" stroke-miterlimit="10" stroke-width="2"/></g><g><rect width="10.5" height="10.5" x="457.584" y="370.25" fill="none" stroke="#A8A8A8" stroke-linecap="round" stroke-linejoin="round" stroke-miterlimit="10" stroke-width="2"/><rect width="10.5" height="10.5" x="477.334" y="370.25" fill="none" stroke="#A8A8A8" stroke-linecap="round" stroke-linejoin="round" stroke-miterlimit="10" stroke-width="2"/><rect width="10.5" height="10.5" x="497.084" y="370.25" fill="none" stroke="#A8A8A8" stroke-linecap="round" stroke-linejoin="round" stroke-miterlimit="10" stroke-width="2"/></g><g><rect width="10.5" height="18.561" x="473" y="398" fill="none" stroke="#A8A8A8" stroke-linecap="round" stroke-linejoin="round" stroke-miterlimit="10" stroke-width="2"/><rect width="10.5" height="18.561" x="483.5" y="398" fill="none" stroke="#A8A8A8" stroke-linecap="round" stroke-linejoin="round" stroke-miterlimit="10" stroke-width="2"/></g><line x1="481.291" x2="485.708" y1="408.516" y2="408.516" fill="none" stroke="#A8A8A8" stroke-linecap="round" stroke-linejoin="round" stroke-miterlimit="10" stroke-width="2"/></g><g id="type"><rect width="236.985" height="26" x="185.546" y="245.491" fill="none"/><text font-family="'SignPainter-HouseScript'" font-size="24" transform="matrix(1 0 0 1 185.5459 260.5176)">Welcome To</text><g><g opacity=".75"><rect width="305.333" height="53.342" x="183.251" y="268.491" fill="none"/><text fill="#BFBEBE" font-family="'Avenir-Black'" font-size="56" transform="matrix(1 0 0 1 183.251 310.8271)">GIT TOWN</text></g><g><rect width="305.333" height="53.342" x="181.251" y="266.491" fill="none"/><text fill="#E8280F" font-family="'Avenir-Black'" font-size="56" transform="matrix(1 0 0 1 181.251 308.8271)">GIT TOWN</text></g></g></g><g id="plane"><g><polyline fill="none" stroke="#A8A8A8" stroke-linecap="round" stroke-linejoin="round" stroke-miterlimit="10" stroke-width="2" points="382.843 231.2 387.003 229.097 388.7 230.621 386.839 232.229"/><path fill="none" stroke="#A8A8A8" stroke-linecap="round" stroke-linejoin="round" stroke-miterlimit="10" stroke-width="2" d="M378.417,236.972l-11.162-1.772c0,0-5.986-0.62-5.685-2.145c0.302-1.524,3.871-1.835,5.22-2.361 c1.349-0.525,2.624-1.596,5.112-1.816c2.07-0.183,19.38,4.494,27.928,6.851c0.668,0.184,6.187-3.759,6.734-3.606 c1.807,0.501-1.993,4.923-1.993,4.923l-2.758,3.641l-17.184-2.728"/><polyline fill="none" stroke="#A8A8A8" stroke-linecap="round" stroke-linejoin="round" stroke-miterlimit="10" stroke-width="2" points="376.791 235.051 385.793 245.491 387.943 244.729 383.759 236.431"/></g></g></svg>