<?xml version="1.0" encoding="utf-8"?>
<!-- Generator: Adobe Illustrator 16.0.0, SVG Export Plug-In . SVG Version: 6.00 Build 0)  -->
<!DOCTYPE svg PUBLIC "-//W3C//DTD SVG 1.1//EN" "http://www.w3.org/Graphics/SVG/1.1/DTD/svg11.dtd">
<svg version="1.1" id="Layer_1" xmlns="http://www.w3.org/2000/svg" xmlns:xlink="http://www.w3.org/1999/xlink" x="0px" y="0px"
	 width="603px" height="164px" viewBox="0 0 603 164" enable-background="new 0 0 603 164" xml:space="preserve">
<g>
	
		<image overflow="visible" opacity="0.48" width="195" height="143" xlink:href="A733C935D2D278E.png"  transform="matrix(1 0 0 1 -17 8.5)">
	</image>
	<g>
		
			<linearGradient id="SVGID_1_" gradientUnits="userSpaceOnUse" x1="4.835" y1="-542.3906" x2="156.5239" y2="-542.3906" gradientTransform="matrix(1 0 0 -1 0 -462)">
			<stop  offset="0" style="stop-color:#FFF200"/>
			<stop  offset="1" style="stop-color:#F42534"/>
		</linearGradient>
		<path fill="url(#SVGID_1_)" d="M130.987,130.473l-0.001-56.721h4.818L98.65,40.817L86.854,51.273l35.034,30.342h-18.98v48.77
			H58.453v-48.77H40.78l34.146-30.272L62.74,40.789L25.556,73.752h4.816v56.721h-7.863V81.615H4.835l57.843-51.279l18.18,15.746
			l17.791-15.773l57.875,51.307h-17.676l0.001,48.856H130.987L130.987,130.473z M66.313,122.521h28.73V73.751h5.755l-19.88-17.217
			L61.499,73.751h4.815L66.313,122.521L66.313,122.521z"/>
	</g>
</g>
<g>
	
		<image overflow="visible" opacity="0.48" width="459" height="98" xlink:href="A733C935D2D2792.png"  transform="matrix(1 0 0 1 155 57.5)">
	</image>
	<g>
		<g>
			<path fill="#FFFFFF" d="M204.08,105.5h20.246v1.623c0,3.682-0.437,6.936-1.303,9.77c-0.847,2.623-2.273,5.076-4.284,7.366
				c-4.545,5.114-10.332,7.671-17.357,7.671c-6.851,0-12.724-2.469-17.611-7.421c-4.887-4.97-7.328-10.938-7.328-17.891
				c0-7.115,2.484-13.147,7.455-18.097c4.976-4.971,11.023-7.458,18.152-7.458c3.832,0,7.402,0.784,10.725,2.337
				c3.175,1.558,6.291,4.093,9.362,7.596l-5.269,5.048c-4.018-5.354-8.917-8.035-14.691-8.035c-5.181,0-9.529,1.798-13.042,5.364
				c-3.512,3.516-5.269,7.916-5.269,13.2c0,5.46,1.96,9.961,5.873,13.489c3.656,3.277,7.622,4.916,11.898,4.916
				c3.64,0,6.907-1.226,9.808-3.674c2.896-2.466,4.513-5.418,4.855-8.855h-12.22V105.5L204.08,105.5z"/>
			<path fill="#FFFFFF" d="M254.014,82.021v48.995h-7.396V82.021H254.014z"/>
			<path fill="#FFFFFF" d="M292.303,88.973v42.043h-7.395V88.973h-11.267v-6.952h29.893v6.952H292.303z"/>
			<path fill="#FFFFFF" d="M369.702,88.973v42.043h-7.394V88.973H351.04v-6.952h29.893v6.952H369.702z"/>
			<path fill="#FFFFFF" d="M396.532,106.289c0-6.889,2.524-12.818,7.586-17.768c5.039-4.953,11.083-7.421,18.149-7.421
				c6.981,0,12.969,2.493,17.964,7.493c5.016,4.983,7.521,10.986,7.521,17.981c0,7.051-2.519,13.025-7.557,17.934
				c-5.054,4.928-11.159,7.393-18.311,7.393c-6.322,0-12.005-2.186-17.035-6.567C399.306,120.488,396.532,114.143,396.532,106.289z
				 M403.991,106.373c0,5.409,1.813,9.863,5.461,13.348c3.615,3.487,7.796,5.231,12.537,5.231c5.134,0,9.473-1.774,13.005-5.326
				c3.533-3.596,5.301-7.971,5.301-13.125c0-5.226-1.748-9.597-5.232-13.126c-3.475-3.551-7.77-5.329-12.892-5.329
				c-5.094,0-9.401,1.778-12.91,5.329C405.752,96.885,403.991,101.213,403.991,106.373z"/>
			<path fill="#FFFFFF" d="M470.367,82.021l12.751,32.747l13.329-35.132l12.759,35.132l13.546-32.747h8.03l-21.897,52.103
				L496.289,99.41l-13.138,34.749l-20.814-52.138H470.367z"/>
			<path fill="#FFFFFF" d="M549.874,131.016V78.688l35.729,37.378V82.021H593v51.976l-35.734-37.281v34.3H549.874L549.874,131.016z"
				/>
		</g>
	</g>
</g>
</svg>
