<?xml version="1.0" encoding="utf-8"?>
<!-- Generator: Adobe Illustrator 16.0.0, SVG Export Plug-In . SVG Version: 6.00 Build 0)  -->
<!DOCTYPE svg PUBLIC "-//W3C//DTD SVG 1.1//EN" "http://www.w3.org/Graphics/SVG/1.1/DTD/svg11.dtd">
<svg version="1.1" id="Layer_1" xmlns="http://www.w3.org/2000/svg" xmlns:xlink="http://www.w3.org/1999/xlink" x="0px" y="0px"
	 width="492px" height="270px" viewBox="62.5 202.5 492 270" enable-background="new 62.5 202.5 492 270" xml:space="preserve">
<g id="lines">
	
		<line fill="none" stroke="#A8A8A8" stroke-width="2" stroke-linecap="round" stroke-linejoin="round" stroke-miterlimit="10" x1="91" y1="428.332" x2="196" y2="428.332"/>
	
		<line fill="none" stroke="#A8A8A8" stroke-width="2" stroke-linecap="round" stroke-linejoin="round" stroke-miterlimit="10" x1="171" y1="438.999" x2="206.333" y2="438.999"/>
	
		<line fill="none" stroke="#A8A8A8" stroke-width="2" stroke-linecap="round" stroke-linejoin="round" stroke-miterlimit="10" x1="246.098" y1="454.999" x2="314.333" y2="454.999"/>
	
		<line fill="none" stroke="#A8A8A8" stroke-width="2" stroke-linecap="round" stroke-linejoin="round" stroke-miterlimit="10" x1="278.063" y1="435.666" x2="330.014" y2="435.666"/>
	
		<line fill="none" stroke="#A8A8A8" stroke-width="2" stroke-linecap="round" stroke-linejoin="round" stroke-miterlimit="10" x1="306" y1="441.999" x2="361.834" y2="441.999"/>
	
		<line fill="none" stroke="#A8A8A8" stroke-width="2" stroke-linecap="round" stroke-linejoin="round" stroke-miterlimit="10" x1="399" y1="436.999" x2="477.059" y2="436.999"/>
	
		<line fill="none" stroke="#A8A8A8" stroke-width="2" stroke-linecap="round" stroke-linejoin="round" stroke-miterlimit="10" x1="356.999" y1="454.999" x2="395.999" y2="454.999"/>
	
		<line fill="none" stroke="#A8A8A8" stroke-width="2" stroke-linecap="round" stroke-linejoin="round" stroke-miterlimit="10" x1="352.334" y1="428.332" x2="443.667" y2="428.332"/>
	
		<line fill="none" stroke="#A8A8A8" stroke-width="2" stroke-linecap="round" stroke-linejoin="round" stroke-miterlimit="10" x1="250.598" y1="423.999" x2="390.476" y2="423.999"/>
	
		<line fill="none" stroke="#A8A8A8" stroke-width="2" stroke-linecap="round" stroke-linejoin="round" stroke-miterlimit="10" x1="196" y1="432.999" x2="304.038" y2="432.999"/>
	
		<line fill="none" stroke="#A8A8A8" stroke-width="2" stroke-linecap="round" stroke-linejoin="round" stroke-miterlimit="10" x1="204.015" y1="424.999" x2="132.932" y2="424.999"/>
	
		<line fill="none" stroke="#A8A8A8" stroke-width="2" stroke-linecap="round" stroke-linejoin="round" stroke-miterlimit="10" x1="236.333" y1="428.332" x2="208.375" y2="428.332"/>
	
		<line fill="none" stroke="#A8A8A8" stroke-width="2" stroke-linecap="round" stroke-linejoin="round" stroke-miterlimit="10" x1="446.334" y1="432.999" x2="513.667" y2="432.999"/>
	
		<line fill="none" stroke="#A8A8A8" stroke-width="2" stroke-linecap="round" stroke-linejoin="round" stroke-miterlimit="10" x1="415" y1="421.666" x2="446.334" y2="421.666"/>
	
		<line fill="none" stroke="#A8A8A8" stroke-width="2" stroke-linecap="round" stroke-linejoin="round" stroke-miterlimit="10" x1="450.333" y1="424.999" x2="487.667" y2="424.999"/>
	
		<line fill="none" stroke="#A8A8A8" stroke-width="2" stroke-linecap="round" stroke-linejoin="round" stroke-miterlimit="10" x1="349.472" y1="435.666" x2="380.999" y2="435.666"/>
	
		<line fill="none" stroke="#A8A8A8" stroke-width="2" stroke-linecap="round" stroke-linejoin="round" stroke-miterlimit="10" x1="233.333" y1="442.999" x2="261.697" y2="442.999"/>
	
		<line fill="none" stroke="#A8A8A8" stroke-width="2" stroke-linecap="round" stroke-linejoin="round" stroke-miterlimit="10" x1="138" y1="442.999" x2="147.667" y2="442.999"/>
	
		<line fill="none" stroke="#A8A8A8" stroke-width="2" stroke-linecap="round" stroke-linejoin="round" stroke-miterlimit="10" x1="171" y1="454.999" x2="181.333" y2="454.999"/>
</g>
<g id="town">
	
		<line fill="none" stroke="#A8A8A8" stroke-width="2" stroke-linecap="round" stroke-linejoin="round" stroke-miterlimit="10" x1="77.663" y1="416.561" x2="539.667" y2="416.561"/>
	
		<rect x="102.333" y="309.666" fill="none" stroke="#A8A8A8" stroke-width="2" stroke-linecap="round" stroke-linejoin="round" stroke-miterlimit="10" width="72.667" height="106.895"/>
	
		<rect x="175" y="343" fill="none" stroke="#A8A8A8" stroke-width="2" stroke-linecap="round" stroke-linejoin="round" stroke-miterlimit="10" width="58.333" height="73.561"/>
	
		<rect x="304.665" y="375.833" fill="none" stroke="#A8A8A8" stroke-width="2" stroke-linecap="round" stroke-linejoin="round" stroke-miterlimit="10" width="110.335" height="40.728"/>
	
		<rect x="392.5" y="398" fill="none" stroke="#A8A8A8" stroke-width="2" stroke-linecap="round" stroke-linejoin="round" stroke-miterlimit="10" width="10.5" height="18.561"/>
	<g>
		
			<rect x="113" y="338.5" fill="none" stroke="#A8A8A8" stroke-width="2" stroke-linecap="round" stroke-linejoin="round" stroke-miterlimit="10" width="10.5" height="10.5"/>
		
			<rect x="132.75" y="338.5" fill="none" stroke="#A8A8A8" stroke-width="2" stroke-linecap="round" stroke-linejoin="round" stroke-miterlimit="10" width="10.5" height="10.5"/>
		
			<rect x="152.5" y="338.5" fill="none" stroke="#A8A8A8" stroke-width="2" stroke-linecap="round" stroke-linejoin="round" stroke-miterlimit="10" width="10.5" height="10.5"/>
	</g>
	<g>
		
			<rect x="113" y="357.167" fill="none" stroke="#A8A8A8" stroke-width="2" stroke-linecap="round" stroke-linejoin="round" stroke-miterlimit="10" width="10.5" height="10.5"/>
		
			<rect x="132.75" y="357.167" fill="none" stroke="#A8A8A8" stroke-width="2" stroke-linecap="round" stroke-linejoin="round" stroke-miterlimit="10" width="10.5" height="10.5"/>
		
			<rect x="152.5" y="357.167" fill="none" stroke="#A8A8A8" stroke-width="2" stroke-linecap="round" stroke-linejoin="round" stroke-miterlimit="10" width="10.5" height="10.5"/>
	</g>
	<g>
		
			<rect x="113" y="375.833" fill="none" stroke="#A8A8A8" stroke-width="2" stroke-linecap="round" stroke-linejoin="round" stroke-miterlimit="10" width="10.5" height="10.5"/>
		
			<rect x="132.75" y="375.833" fill="none" stroke="#A8A8A8" stroke-width="2" stroke-linecap="round" stroke-linejoin="round" stroke-miterlimit="10" width="10.5" height="10.5"/>
		
			<rect x="152.5" y="375.833" fill="none" stroke="#A8A8A8" stroke-width="2" stroke-linecap="round" stroke-linejoin="round" stroke-miterlimit="10" width="10.5" height="10.5"/>
	</g>
	
		<rect x="152.5" y="398" fill="none" stroke="#A8A8A8" stroke-width="2" stroke-linecap="round" stroke-linejoin="round" stroke-miterlimit="10" width="10.5" height="18.561"/>
	
		<rect x="113" y="398" fill="none" stroke="#A8A8A8" stroke-width="2" stroke-linecap="round" stroke-linejoin="round" stroke-miterlimit="10" width="30.25" height="12.666"/>
	<g>
		
			<rect x="113" y="319.833" fill="none" stroke="#A8A8A8" stroke-width="2" stroke-linecap="round" stroke-linejoin="round" stroke-miterlimit="10" width="10.5" height="10.5"/>
		
			<rect x="132.75" y="319.833" fill="none" stroke="#A8A8A8" stroke-width="2" stroke-linecap="round" stroke-linejoin="round" stroke-miterlimit="10" width="10.5" height="10.5"/>
		
			<rect x="152.5" y="319.833" fill="none" stroke="#A8A8A8" stroke-width="2" stroke-linecap="round" stroke-linejoin="round" stroke-miterlimit="10" width="10.5" height="10.5"/>
	</g>
	
		<line fill="none" stroke="#A8A8A8" stroke-width="2" stroke-linecap="round" stroke-linejoin="round" stroke-miterlimit="10" x1="123.5" y1="407.28" x2="129.224" y2="401.557"/>
	
		<line fill="none" stroke="#A8A8A8" stroke-width="2" stroke-linecap="round" stroke-linejoin="round" stroke-miterlimit="10" x1="129.334" y1="406.418" x2="132.932" y2="402.82"/>
	
		<line fill="none" stroke="#A8A8A8" stroke-width="2" stroke-linecap="round" stroke-linejoin="round" stroke-miterlimit="10" x1="160.334" y1="407.281" x2="160.334" y2="410.666"/>
	<path fill="none" stroke="#A8A8A8" stroke-width="2" stroke-linecap="round" stroke-linejoin="round" stroke-miterlimit="10" d="
		M405.024,398.039h-14.55c0-4.017,3.258-7.274,7.274-7.274S405.024,394.022,405.024,398.039z"/>
	
		<rect x="314.333" y="386.333" fill="none" stroke="#A8A8A8" stroke-width="2" stroke-linecap="round" stroke-linejoin="round" stroke-miterlimit="10" width="26.334" height="30.228"/>
	
		<rect x="348.666" y="386.333" fill="none" stroke="#A8A8A8" stroke-width="2" stroke-linecap="round" stroke-linejoin="round" stroke-miterlimit="10" width="26.334" height="30.228"/>
	<g>
		
			<line fill="none" stroke="#A8A8A8" stroke-width="2" stroke-linecap="round" stroke-linejoin="round" stroke-miterlimit="10" x1="324.29" y1="398.862" x2="330.014" y2="393.139"/>
		
			<line fill="none" stroke="#A8A8A8" stroke-width="2" stroke-linecap="round" stroke-linejoin="round" stroke-miterlimit="10" x1="330.124" y1="398" x2="333.722" y2="394.402"/>
	</g>
	<g>
		
			<line fill="none" stroke="#A8A8A8" stroke-width="2" stroke-linecap="round" stroke-linejoin="round" stroke-miterlimit="10" x1="359.832" y1="398.487" x2="365.556" y2="392.764"/>
		
			<line fill="none" stroke="#A8A8A8" stroke-width="2" stroke-linecap="round" stroke-linejoin="round" stroke-miterlimit="10" x1="365.666" y1="397.625" x2="369.264" y2="394.027"/>
	</g>
	
		<rect x="356.999" y="357.167" fill="none" stroke="#A8A8A8" stroke-width="2" stroke-linecap="round" stroke-linejoin="round" stroke-miterlimit="10" width="48" height="13.168"/>
	
		<line fill="none" stroke="#A8A8A8" stroke-width="2" stroke-linecap="round" stroke-linejoin="round" stroke-miterlimit="10" x1="367.465" y1="370.334" x2="367.465" y2="375.833"/>
	
		<line fill="none" stroke="#A8A8A8" stroke-width="2" stroke-linecap="round" stroke-linejoin="round" stroke-miterlimit="10" x1="395.999" y1="370.334" x2="395.999" y2="375.833"/>
	<circle fill="#A8A8A8" cx="400.235" cy="408.516" r="1.235"/>
	<g>
		
			<circle fill="none" stroke="#A8A8A8" stroke-width="2" stroke-linecap="round" stroke-linejoin="round" stroke-miterlimit="10" cx="268.021" cy="390.875" r="10.042"/>
		
			<line fill="none" stroke="#A8A8A8" stroke-width="2" stroke-linecap="round" stroke-linejoin="round" stroke-miterlimit="10" x1="268.021" y1="400.916" x2="268.021" y2="416.561"/>
	</g>
	<g>
		
			<circle fill="none" stroke="#A8A8A8" stroke-width="2" stroke-linecap="round" stroke-linejoin="round" stroke-miterlimit="10" cx="249.467" cy="399.43" r="7.487"/>
		
			<line fill="none" stroke="#A8A8A8" stroke-width="2" stroke-linecap="round" stroke-linejoin="round" stroke-miterlimit="10" x1="250.021" y1="407.25" x2="250.021" y2="416.561"/>
	</g>
	
		<path opacity="0.3" fill="none" stroke="#A8A8A8" stroke-width="2" stroke-linecap="round" stroke-linejoin="round" stroke-miterlimit="10" enable-background="new    " d="
		M183.459,249.334c-4.284,0-8.062,2.157-10.313,5.442c-4.311,0.228-7.874,3.234-8.938,7.268c-0.506-0.133-1.035-0.21-1.583-0.21
		c-3.452,0-6.25,2.798-6.25,6.25s2.798,6.25,6.25,6.25c1.929,0,18.976,0,20.834,0c6.903,0,12.5-5.597,12.5-12.5
		S190.362,249.334,183.459,249.334z"/>
	
		<path opacity="0.3" fill="none" stroke="#A8A8A8" stroke-width="2" stroke-linecap="round" stroke-linejoin="round" stroke-miterlimit="10" enable-background="new    " d="
		M374.806,295.521c-3.256,0-6.127,1.64-7.839,4.136c-3.274,0.173-5.983,2.458-6.791,5.524c-0.385-0.101-0.787-0.16-1.204-0.16
		c-2.623,0-4.75,2.127-4.75,4.75s2.127,4.75,4.75,4.75c1.467,0,14.422,0,15.834,0c5.246,0,9.5-4.253,9.5-9.5
		S380.052,295.521,374.806,295.521z"/>
	
		<path opacity="0.3" fill="none" stroke="#A8A8A8" stroke-width="2" stroke-linecap="round" stroke-linejoin="round" stroke-miterlimit="10" enable-background="new    " d="
		M306.955,317.704c-2.529,0-4.76,1.273-6.09,3.213c-2.544,0.134-4.648,1.909-5.274,4.29c-0.299-0.078-0.611-0.124-0.935-0.124
		c-2.037,0-3.689,1.652-3.689,3.689s1.652,3.689,3.689,3.689c1.138,0,11.201,0,12.299,0c4.074,0,7.378-3.304,7.378-7.379
		S311.029,317.704,306.955,317.704z"/>
	
		<rect x="450.333" y="325.083" fill="none" stroke="#A8A8A8" stroke-width="2" stroke-linecap="round" stroke-linejoin="round" stroke-miterlimit="10" width="65.001" height="91.478"/>
	
		<line fill="none" stroke="#A8A8A8" stroke-width="2" stroke-linecap="round" stroke-linejoin="round" stroke-miterlimit="10" x1="185" y1="343" x2="185" y2="325.083"/>
	
		<line fill="none" stroke="#A8A8A8" stroke-width="2" stroke-linecap="round" stroke-linejoin="round" stroke-miterlimit="10" x1="191" y1="343" x2="191" y2="334.042"/>
	
		<rect x="181.333" y="350.667" fill="none" stroke="#A8A8A8" stroke-width="2" stroke-linecap="round" stroke-linejoin="round" stroke-miterlimit="10" width="20.167" height="13.084"/>
	
		<rect x="206.333" y="350.667" fill="none" stroke="#A8A8A8" stroke-width="2" stroke-linecap="round" stroke-linejoin="round" stroke-miterlimit="10" width="20.167" height="13.084"/>
	
		<rect x="181.333" y="368.667" fill="none" stroke="#A8A8A8" stroke-width="2" stroke-linecap="round" stroke-linejoin="round" stroke-miterlimit="10" width="20.167" height="13.084"/>
	
		<rect x="206.333" y="368.667" fill="none" stroke="#A8A8A8" stroke-width="2" stroke-linecap="round" stroke-linejoin="round" stroke-miterlimit="10" width="20.167" height="13.084"/>
	
		<rect x="181.75" y="398.001" fill="none" stroke="#A8A8A8" stroke-width="2" stroke-linecap="round" stroke-linejoin="round" stroke-miterlimit="10" width="10.5" height="18.562"/>
	<g>
		
			<rect x="207.333" y="399.127" fill="none" stroke="#A8A8A8" stroke-width="2" stroke-linecap="round" stroke-linejoin="round" stroke-miterlimit="10" width="18.167" height="16.584"/>
		
			<line fill="none" stroke="#A8A8A8" stroke-width="2" stroke-linecap="round" stroke-linejoin="round" stroke-miterlimit="10" x1="207.333" y1="403.904" x2="225.5" y2="403.904"/>
		
			<line fill="none" stroke="#A8A8A8" stroke-width="2" stroke-linecap="round" stroke-linejoin="round" stroke-miterlimit="10" x1="207.333" y1="406.252" x2="225.5" y2="406.252"/>
		
			<line fill="none" stroke="#A8A8A8" stroke-width="2" stroke-linecap="round" stroke-linejoin="round" stroke-miterlimit="10" x1="207.333" y1="401.557" x2="225.5" y2="401.557"/>
		
			<line fill="none" stroke="#A8A8A8" stroke-width="2" stroke-linecap="round" stroke-linejoin="round" stroke-miterlimit="10" x1="207.333" y1="408.599" x2="225.5" y2="408.599"/>
		
			<line fill="none" stroke="#A8A8A8" stroke-width="2" stroke-linecap="round" stroke-linejoin="round" stroke-miterlimit="10" x1="208.375" y1="410.946" x2="225.417" y2="410.946"/>
		
			<line fill="none" stroke="#A8A8A8" stroke-width="2" stroke-linecap="round" stroke-linejoin="round" stroke-miterlimit="10" x1="207.333" y1="413.294" x2="225.5" y2="413.294"/>
	</g>
	
		<rect x="205.708" y="395.375" fill="none" stroke="#A8A8A8" stroke-width="2" stroke-linecap="round" stroke-linejoin="round" stroke-miterlimit="10" width="21.417" height="3.752"/>
	<circle fill="#A8A8A8" cx="273.682" cy="391.944" r="1.235"/>
	<circle fill="#A8A8A8" cx="262.932" cy="394.413" r="1.235"/>
	<circle fill="#A8A8A8" cx="269.167" cy="397.251" r="1.235"/>
	<circle fill="#A8A8A8" cx="251.833" cy="402.834" r="1.235"/>
	<circle fill="#A8A8A8" cx="267.932" cy="391.584" r="1.235"/>
	<circle fill="#A8A8A8" cx="247.333" cy="401.933" r="1.235"/>
	<circle fill="#A8A8A8" cx="188.667" cy="408.516" r="1.235"/>
	<g>
		
			<rect x="419.217" y="398.485" fill="none" stroke="#A8A8A8" stroke-width="2" stroke-linecap="round" stroke-linejoin="round" stroke-miterlimit="10" width="10.333" height="13.42"/>
		
			<rect x="421.981" y="411.905" fill="none" stroke="#A8A8A8" stroke-width="2" stroke-linecap="round" stroke-linejoin="round" stroke-miterlimit="10" width="4.803" height="4.654"/>
	</g>
	<g>
		
			<rect x="457.584" y="333.25" fill="none" stroke="#A8A8A8" stroke-width="2" stroke-linecap="round" stroke-linejoin="round" stroke-miterlimit="10" width="10.5" height="10.5"/>
		
			<rect x="477.334" y="333.25" fill="none" stroke="#A8A8A8" stroke-width="2" stroke-linecap="round" stroke-linejoin="round" stroke-miterlimit="10" width="10.5" height="10.5"/>
		
			<rect x="497.084" y="333.25" fill="none" stroke="#A8A8A8" stroke-width="2" stroke-linecap="round" stroke-linejoin="round" stroke-miterlimit="10" width="10.5" height="10.5"/>
	</g>
	
		<rect x="487.834" y="305.021" fill="none" stroke="#A8A8A8" stroke-width="2" stroke-linecap="round" stroke-linejoin="round" stroke-miterlimit="10" width="19.75" height="20.062"/>
	<g>
		
			<rect x="457.584" y="351.25" fill="none" stroke="#A8A8A8" stroke-width="2" stroke-linecap="round" stroke-linejoin="round" stroke-miterlimit="10" width="10.5" height="10.5"/>
		
			<rect x="477.334" y="351.25" fill="none" stroke="#A8A8A8" stroke-width="2" stroke-linecap="round" stroke-linejoin="round" stroke-miterlimit="10" width="10.5" height="10.5"/>
		
			<rect x="497.084" y="351.25" fill="none" stroke="#A8A8A8" stroke-width="2" stroke-linecap="round" stroke-linejoin="round" stroke-miterlimit="10" width="10.5" height="10.5"/>
	</g>
	<g>
		
			<rect x="457.584" y="370.25" fill="none" stroke="#A8A8A8" stroke-width="2" stroke-linecap="round" stroke-linejoin="round" stroke-miterlimit="10" width="10.5" height="10.5"/>
		
			<rect x="477.334" y="370.25" fill="none" stroke="#A8A8A8" stroke-width="2" stroke-linecap="round" stroke-linejoin="round" stroke-miterlimit="10" width="10.5" height="10.5"/>
		
			<rect x="497.084" y="370.25" fill="none" stroke="#A8A8A8" stroke-width="2" stroke-linecap="round" stroke-linejoin="round" stroke-miterlimit="10" width="10.5" height="10.5"/>
	</g>
	<g>
		
			<rect x="473" y="398" fill="none" stroke="#A8A8A8" stroke-width="2" stroke-linecap="round" stroke-linejoin="round" stroke-miterlimit="10" width="10.5" height="18.561"/>
		
			<rect x="483.5" y="398" fill="none" stroke="#A8A8A8" stroke-width="2" stroke-linecap="round" stroke-linejoin="round" stroke-miterlimit="10" width="10.5" height="18.561"/>
	</g>
	
		<line fill="none" stroke="#A8A8A8" stroke-width="2" stroke-linecap="round" stroke-linejoin="round" stroke-miterlimit="10" x1="481.291" y1="408.516" x2="485.708" y2="408.516"/>
</g>
<g id="type">
	<rect x="185.546" y="245.491" fill="none" width="236.985" height="26"/>
	<text transform="matrix(1 0 0 1 185.5459 260.5176)" font-family="'SignPainter-HouseScript'" font-size="24">Welcome To</text>
	<g>
		<g opacity="0.75">
			<rect x="183.251" y="268.491" fill="none" width="305.333" height="53.342"/>
			<text transform="matrix(1 0 0 1 183.251 310.8271)" fill="#BFBEBE" font-family="'Avenir-Black'" font-size="56">GIT TOWN</text>
		</g>
		<g>
			<rect x="181.251" y="266.491" fill="none" width="305.333" height="53.342"/>
			<text transform="matrix(1 0 0 1 181.251 308.8271)" fill="#E8280F" font-family="'Avenir-Black'" font-size="56">GIT TOWN</text>
		</g>
	</g>
</g>
<g id="plane">
	<g>
		
			<polyline fill="none" stroke="#A8A8A8" stroke-width="2" stroke-linecap="round" stroke-linejoin="round" stroke-miterlimit="10" points="
			382.843,231.2 387.003,229.097 388.7,230.621 386.839,232.229 		"/>
		<path fill="none" stroke="#A8A8A8" stroke-width="2" stroke-linecap="round" stroke-linejoin="round" stroke-miterlimit="10" d="
			M378.417,236.972l-11.162-1.772c0,0-5.986-0.62-5.685-2.145c0.302-1.524,3.871-1.835,5.22-2.361
			c1.349-0.525,2.624-1.596,5.112-1.816c2.07-0.183,19.38,4.494,27.928,6.851c0.668,0.184,6.187-3.759,6.734-3.606
			c1.807,0.501-1.993,4.923-1.993,4.923l-2.758,3.641l-17.184-2.728"/>
		
			<polyline fill="none" stroke="#A8A8A8" stroke-width="2" stroke-linecap="round" stroke-linejoin="round" stroke-miterlimit="10" points="
			376.791,235.051 385.793,245.491 387.943,244.729 383.759,236.431 		"/>
	</g>
</g>
</svg>
