<?xml version="1.0" encoding="utf-8"?>
<!-- Generator: Adobe Illustrator 16.0.4, SVG Export Plug-In . SVG Version: 6.00 Build 0)  -->
<!DOCTYPE svg PUBLIC "-//W3C//DTD SVG 1.1//EN" "http://www.w3.org/Graphics/SVG/1.1/DTD/svg11.dtd">
<svg version="1.1" id="Layer_1" xmlns="http://www.w3.org/2000/svg" xmlns:xlink="http://www.w3.org/1999/xlink" x="0px" y="0px"
	 width="738px" height="164px" viewBox="0 0 738 164" enable-background="new 0 0 738 164" xml:space="preserve">
<linearGradient id="SVGID_1_" gradientUnits="userSpaceOnUse" x1="69.835" y1="80.3906" x2="221.5244" y2="80.3906">
	<stop  offset="0" style="stop-color:#FFF200"/>
	<stop  offset="1" style="stop-color:#F42534"/>
</linearGradient>
<path fill="url(#SVGID_1_)" d="M195.987,130.473l-0.001-56.721h4.818l-37.154-32.935l-11.796,10.456l35.034,30.342h-18.98v48.77
	h-44.455v-48.77h-17.673l34.146-30.272l-12.186-10.554L90.556,73.752h4.816v56.721h-7.863V81.615H69.835l57.843-51.279l18.18,15.746
	l17.791-15.773l57.875,51.307h-17.676l0.001,48.857H195.987z M131.313,122.522h28.73V73.752h5.755l-19.88-17.217l-19.419,17.217
	h4.815V122.522z"/>
<g>
	<path d="M269.08,105.5h20.246v1.623c0,3.681-0.437,6.936-1.303,9.769c-0.847,2.624-2.273,5.077-4.284,7.367
		c-4.545,5.114-10.332,7.671-17.357,7.671c-6.851,0-12.724-2.469-17.611-7.421c-4.887-4.97-7.328-10.938-7.328-17.891
		c0-7.115,2.484-13.147,7.455-18.097c4.976-4.968,11.023-7.456,18.152-7.456c3.832,0,7.402,0.784,10.725,2.34
		c3.175,1.555,6.291,4.09,9.362,7.593l-5.269,5.048c-4.018-5.352-8.917-8.035-14.691-8.035c-5.181,0-9.529,1.796-13.042,5.364
		c-3.512,3.514-5.269,7.916-5.269,13.2c0,5.46,1.96,9.961,5.873,13.491c3.656,3.278,7.622,4.917,11.898,4.917
		c3.64,0,6.907-1.226,9.808-3.674c2.896-2.466,4.513-5.419,4.855-8.858H269.08V105.5z"/>
	<path d="M319.014,82.021v48.994h-7.396V82.021H319.014z"/>
	<path d="M357.303,88.973v42.042h-7.395V88.973h-11.265v-6.952h29.891v6.952H357.303z"/>
	<path d="M434.702,88.973v42.042h-7.391V88.973h-11.269v-6.952h29.893v6.952H434.702z"/>
	<path d="M461.532,106.289c0-6.889,2.527-12.818,7.586-17.768c5.039-4.953,11.083-7.421,18.152-7.421
		c6.981,0,12.966,2.493,17.961,7.493c5.016,4.983,7.521,10.986,7.521,17.981c0,7.051-2.519,13.026-7.557,17.934
		c-5.051,4.927-11.159,7.393-18.308,7.393c-6.324,0-12.005-2.186-17.035-6.57C464.306,120.488,461.532,114.142,461.532,106.289z
		 M468.991,106.373c0,5.409,1.816,9.864,5.461,13.348c3.615,3.487,7.796,5.231,12.537,5.231c5.134,0,9.473-1.774,13.005-5.326
		c3.533-3.596,5.301-7.971,5.301-13.125c0-5.226-1.748-9.597-5.232-13.126c-3.475-3.551-7.77-5.329-12.892-5.329
		c-5.094,0-9.401,1.778-12.91,5.329C470.752,96.885,468.991,101.213,468.991,106.373z"/>
	<path d="M535.367,82.021l12.751,32.747l13.329-35.132l12.759,35.132l13.546-32.747h8.03l-21.897,52.103l-12.596-34.714
		l-13.138,34.749l-20.814-52.138H535.367z"/>
	<path d="M614.874,131.015V78.688l35.73,37.378V82.021H658v51.976l-35.734-37.281v34.3H614.874z"/>
</g>
</svg>
