<?xml version="1.0"?>
<svg width="738" height="164" xmlns="http://www.w3.org/2000/svg" xmlns:svg="http://www.w3.org/2000/svg">
 <linearGradient y2="0.499996" x2="1.000003" y1="0.499996" x1="0" id="SVGID_1_">
  <stop stop-color="#FFF200" offset="0"/>
  <stop stop-color="#F42534" offset="1"/>
 </linearGradient>
 <g>
  <title>Layer 1</title>
  <path id="svg_1" d="m195.987,130.473007l-0.001007,-56.721001l4.818008,0l-37.154007,-32.934998l-11.79599,10.456001l35.033997,30.341988l-18.979996,0l0,48.769997l-44.455002,0l0,-48.769997l-17.673004,0l34.145996,-30.271988l-12.185997,-10.554001l-37.183998,32.96299l4.816002,0l0,56.721008l-7.862999,0l0,-48.858009l-17.674004,0l57.843002,-51.278997l18.18,15.746l17.791,-15.773001l57.875,51.306997l-17.675995,0l0.000992,48.85701l-7.862,0zm-64.673996,-7.951004l28.729996,0l0,-48.770004l5.755005,0l-19.880005,-17.216999l-19.418999,17.216999l4.814995,0l0,48.770004l-0.000992,0z" fill="url(#SVGID_1_)"/>
  <g id="svg_2">
   <path fill="#ffffff" stroke="#ffffff" id="svg_3" d="m269.079987,105.5l20.246002,0l0,1.623001c0,3.681 -0.437012,6.935997 -1.303009,9.768997c-0.846985,2.624001 -2.27298,5.077003 -4.283997,7.367004c-4.544983,5.113998 -10.332001,7.67099 -17.356995,7.67099c-6.851013,0 -12.723999,-2.468994 -17.610992,-7.42099c-4.887009,-4.970001 -7.328003,-10.938004 -7.328003,-17.891006c0,-7.114998 2.483994,-13.146996 7.455002,-18.096992c4.975998,-4.968002 11.022995,-7.456001 18.151993,-7.456001c3.832001,0 7.402008,0.783997 10.725006,2.339996c3.174988,1.555 6.290985,4.090004 9.362,7.593002l-5.269012,5.047997c-4.018005,-5.351997 -8.916992,-8.034996 -14.690979,-8.034996c-5.181,0 -9.529022,1.795998 -13.042007,5.363998c-3.512009,3.514 -5.268997,7.916 -5.268997,13.199997c0,5.460007 1.959991,9.961006 5.872986,13.491005c3.656006,3.278 7.622009,4.917 11.89801,4.917c3.639984,0 6.906982,-1.225998 9.807983,-3.674004c2.896027,-2.465996 4.513,-5.418999 4.855011,-8.858002l-12.220001,0l0,-6.950996z"/>
   <path fill="#ffffff" stroke="#ffffff" id="svg_4" d="m319.014008,82.021004l0,48.993996l-7.395996,0l0,-48.993996l7.395996,0z"/>
   <path fill="#ffffff" stroke="#ffffff" id="svg_5" d="m357.303009,88.973l0,42.042l-7.394989,0l0,-42.042l-11.265015,0l0,-6.951996l29.890991,0l0,6.951996l-11.230988,0z"/>
   <path fill="#ffffff" stroke="#ffffff" id="svg_6" d="m434.701996,88.973l0,42.042l-7.390991,0l0,-42.042l-11.269012,0l0,-6.951996l29.893005,0l0,6.951996l-11.233002,0z"/>
   <path fill="#ffffff" stroke="#ffffff" id="svg_7" d="m461.532013,106.289001c0,-6.889 2.527008,-12.818001 7.585999,-17.767998c5.039001,-4.953003 11.083008,-7.421005 18.152008,-7.421005c6.980988,0 12.966003,2.493004 17.960999,7.493004c5.015991,4.982994 7.520996,10.986 7.520996,17.980995c0,7.051003 -2.519012,13.026001 -7.557007,17.934006c-5.050995,4.926994 -11.158997,7.392998 -18.307983,7.392998c-6.324005,0 -12.005005,-2.186005 -17.035004,-6.57c-5.546021,-4.843002 -8.320007,-11.189003 -8.320007,-19.042zm7.458984,0.084c0,5.408997 1.81601,9.863998 5.460999,13.348c3.61499,3.487 7.79599,5.231003 12.537018,5.231003c5.133972,0 9.472992,-1.774002 13.004974,-5.326004c3.53302,-3.596001 5.301025,-7.971001 5.301025,-13.125c0,-5.225998 -1.748016,-9.597 -5.232025,-13.125999c-3.474976,-3.551003 -7.769989,-5.329002 -12.891998,-5.329002c-5.093994,0 -9.401001,1.778 -12.910004,5.329002c-3.508972,3.510002 -5.269989,7.837997 -5.269989,12.998001z"/>
   <path fill="#ffffff" stroke="#ffffff" id="svg_8" d="m535.367004,82.021004l12.750977,32.747009l13.329041,-35.132004l12.758972,35.132004l13.546021,-32.747009l8.029968,0l-21.896973,52.102989l-12.596008,-34.713989l-13.138,34.748993l-20.813965,-52.137993l8.029968,0z"/>
   <path fill="#ffffff" stroke="#ffffff" id="svg_9" d="m614.874023,131.014999l0,-52.326996l35.72998,37.377998l0,-34.044998l7.395996,0l0,51.976006l-35.734009,-37.280998l0,34.299995l-7.391968,0l0,-0.001007z"/>
  </g>
 </g>
</svg>